<svg width="42" height="42" viewBox="0 0 42 42" fill="none" xmlns="http://www.w3.org/2000/svg">
<circle cx="21" cy="21" r="20.75" fill="#3296B5" stroke="url(#paint0_linear)" stroke-width="0.5"/>
<circle cx="21" cy="21" r="18" fill="#121B20"/>
<path d="M18.0789 16.8801C18.2602 16.7201 18.4575 16.5681 18.6709 16.4241C18.8895 16.2801 19.1242 16.1548 19.3749 16.0481C19.6255 15.9414 19.8975 15.8588 20.1909 15.8001C20.4842 15.7361 20.8015 15.7041 21.1429 15.7041C21.6069 15.7041 22.0282 15.7681 22.4069 15.8961C22.7909 16.0241 23.1189 16.2081 23.3909 16.4481C23.6629 16.6828 23.8735 16.9681 24.0229 17.3041C24.1722 17.6401 24.2469 18.0161 24.2469 18.4321C24.2469 18.8374 24.1882 19.1894 24.0709 19.4881C23.9535 19.7814 23.8042 20.0374 23.6229 20.2561C23.4469 20.4748 23.2549 20.6641 23.0469 20.8241C22.8389 20.9841 22.6415 21.1361 22.4549 21.2801C22.2682 21.4188 22.1055 21.5574 21.9669 21.6961C21.8335 21.8294 21.7535 21.9814 21.7269 22.1521L21.5429 23.3201H20.1909L20.0549 22.0161C20.0495 21.9894 20.0469 21.9681 20.0469 21.9521C20.0469 21.9308 20.0469 21.9068 20.0469 21.8801C20.0469 21.6454 20.1055 21.4428 20.2229 21.2721C20.3402 21.0961 20.4869 20.9334 20.6629 20.7841C20.8389 20.6294 21.0282 20.4801 21.2309 20.3361C21.4335 20.1921 21.6229 20.0374 21.7989 19.8721C21.9749 19.7014 22.1215 19.5094 22.2389 19.2961C22.3562 19.0828 22.4149 18.8321 22.4149 18.5441C22.4149 18.3521 22.3775 18.1814 22.3029 18.0321C22.2335 17.8774 22.1349 17.7468 22.0069 17.6401C21.8789 17.5281 21.7242 17.4428 21.5429 17.3841C21.3669 17.3254 21.1749 17.2961 20.9669 17.2961C20.6629 17.2961 20.4042 17.3308 20.1909 17.4001C19.9829 17.4641 19.8042 17.5388 19.6549 17.6241C19.5109 17.7041 19.3882 17.7788 19.2869 17.8481C19.1855 17.9121 19.0949 17.9441 19.0149 17.9441C18.8229 17.9441 18.6842 17.8641 18.5989 17.7041L18.0789 16.8801ZM19.5909 26.3121C19.5909 26.1468 19.6202 25.9894 19.6789 25.8401C19.7429 25.6908 19.8282 25.5628 19.9349 25.4561C20.0469 25.3494 20.1775 25.2641 20.3269 25.2001C20.4762 25.1361 20.6362 25.1041 20.8069 25.1041C20.9722 25.1041 21.1295 25.1361 21.2789 25.2001C21.4282 25.2641 21.5562 25.3494 21.6629 25.4561C21.7695 25.5628 21.8549 25.6908 21.9189 25.8401C21.9829 25.9894 22.0149 26.1468 22.0149 26.3121C22.0149 26.4828 21.9829 26.6428 21.9189 26.7921C21.8549 26.9361 21.7695 27.0614 21.6629 27.1681C21.5562 27.2748 21.4282 27.3574 21.2789 27.4161C21.1295 27.4801 20.9722 27.5121 20.8069 27.5121C20.6362 27.5121 20.4762 27.4801 20.3269 27.4161C20.1775 27.3574 20.0469 27.2748 19.9349 27.1681C19.8282 27.0614 19.7429 26.9361 19.6789 26.7921C19.6202 26.6428 19.5909 26.4828 19.5909 26.3121Z" fill="white"/>
<path d="M32 31.5C31.8333 32.3333 31.4 34.6 31 37L39.5 28.5L40 23.5L36 28L34 31.5H32Z" fill="#3296B5"/>
<path d="M8.5 9.5V6.5L17.5 2.5L17 5.5L14 6L12 8C12 7.83333 11.5 7 11.5 7C11.5 7 10.6667 8.5 10.5 9L8.5 9.5Z" fill="#3296B5"/>
<defs>
<linearGradient id="paint0_linear" x1="21" y1="0" x2="21" y2="72" gradientUnits="userSpaceOnUse">
<stop stop-color="#1AA7C5"/>
<stop offset="1" stop-color="#1AA7C5" stop-opacity="0"/>
</linearGradient>
</defs>
</svg>
