<svg width="290" height="46" viewBox="0 0 290 46" fill="none" xmlns="http://www.w3.org/2000/svg">
<g clip-path="url(#clip0)">
<g filter="url(#filter0_d)">
<path fill-rule="evenodd" clip-rule="evenodd" d="M289.5 24.0002C269.53 35.4679 251.292 27.9672 243.658 23.1092L246.342 18.8909C252.939 23.0884 271.124 29.7657 289 19.5002L289.5 24.0002Z" fill="#3D3D3D"/>
</g>
<g filter="url(#filter1_d)">
<path fill-rule="evenodd" clip-rule="evenodd" d="M1.00024 23.1678C20.9701 34.6355 40.366 27.9669 48.0002 23.109L45.316 18.8906C38.7195 23.0882 18.8765 29.2655 1.00024 19V23.1678Z" fill="#3D3D3D"/>
</g>
<g filter="url(#filter2_d)">
<rect x="45" width="200" height="42" rx="8" fill="#3296B5"/>
<rect x="45.25" y="0.25" width="199.5" height="41.5" rx="7.75" stroke="url(#paint0_linear)" stroke-width="0.5"/>
</g>
<rect x="48" y="3" width="194" height="36" rx="5" fill="#0E191F"/>
<path d="M85.6902 17.536C85.6262 17.648 85.5569 17.7307 85.4822 17.784C85.4129 17.832 85.3249 17.856 85.2182 17.856C85.1062 17.856 84.9835 17.816 84.8502 17.736C84.7222 17.6507 84.5675 17.5573 84.3862 17.456C84.2049 17.3547 83.9915 17.264 83.7462 17.184C83.5062 17.0987 83.2209 17.056 82.8902 17.056C82.5915 17.056 82.3302 17.0933 82.1062 17.168C81.8822 17.2373 81.6929 17.336 81.5382 17.464C81.3889 17.592 81.2769 17.7467 81.2022 17.928C81.1275 18.104 81.0902 18.2987 81.0902 18.512C81.0902 18.784 81.1649 19.0107 81.3142 19.192C81.4689 19.3733 81.6715 19.528 81.9222 19.656C82.1729 19.784 82.4582 19.8987 82.7782 20C83.0982 20.1013 83.4262 20.2107 83.7622 20.328C84.0982 20.44 84.4262 20.5733 84.7462 20.728C85.0662 20.8773 85.3515 21.0693 85.6022 21.304C85.8529 21.5333 86.0529 21.816 86.2022 22.152C86.3569 22.488 86.4342 22.896 86.4342 23.376C86.4342 23.8987 86.3435 24.3893 86.1622 24.848C85.9862 25.3013 85.7249 25.6987 85.3782 26.04C85.0369 26.376 84.6182 26.6427 84.1222 26.84C83.6262 27.032 83.0582 27.128 82.4182 27.128C82.0502 27.128 81.6875 27.0907 81.3302 27.016C80.9729 26.9467 80.6289 26.8453 80.2982 26.712C79.9729 26.5787 79.6662 26.4187 79.3782 26.232C79.0902 26.0453 78.8342 25.8373 78.6102 25.608L79.2422 24.576C79.2955 24.5013 79.3649 24.44 79.4502 24.392C79.5355 24.3387 79.6262 24.312 79.7222 24.312C79.8555 24.312 79.9995 24.368 80.1542 24.48C80.3089 24.5867 80.4929 24.7067 80.7062 24.84C80.9195 24.9733 81.1675 25.096 81.4502 25.208C81.7382 25.3147 82.0822 25.368 82.4822 25.368C83.0955 25.368 83.5702 25.224 83.9062 24.936C84.2422 24.6427 84.4102 24.224 84.4102 23.68C84.4102 23.376 84.3329 23.128 84.1782 22.936C84.0289 22.744 83.8289 22.584 83.5782 22.456C83.3275 22.3227 83.0422 22.2107 82.7222 22.12C82.4022 22.0293 82.0769 21.9307 81.7462 21.824C81.4155 21.7173 81.0902 21.5893 80.7702 21.44C80.4502 21.2907 80.1649 21.096 79.9142 20.856C79.6635 20.616 79.4609 20.3173 79.3062 19.96C79.1569 19.5973 79.0822 19.152 79.0822 18.624C79.0822 18.2027 79.1649 17.792 79.3302 17.392C79.5009 16.992 79.7462 16.6373 80.0662 16.328C80.3862 16.0187 80.7809 15.7707 81.2502 15.584C81.7195 15.3973 82.2582 15.304 82.8662 15.304C83.5489 15.304 84.1782 15.4107 84.7542 15.624C85.3302 15.8373 85.8209 16.136 86.2262 16.52L85.6902 17.536ZM92.2261 23.496C91.6554 23.5227 91.1754 23.5733 90.7861 23.648C90.3967 23.7173 90.0847 23.808 89.8501 23.92C89.6154 24.032 89.4474 24.1627 89.3461 24.312C89.2447 24.4613 89.1941 24.624 89.1941 24.8C89.1941 25.1467 89.2954 25.3947 89.4981 25.544C89.7061 25.6933 89.9754 25.768 90.3061 25.768C90.7114 25.768 91.0607 25.696 91.3541 25.552C91.6527 25.4027 91.9434 25.1787 92.2261 24.88V23.496ZM87.6981 19.936C88.6421 19.072 89.7781 18.64 91.1061 18.64C91.5861 18.64 92.0154 18.72 92.3941 18.88C92.7727 19.0347 93.0927 19.2533 93.3541 19.536C93.6154 19.8133 93.8127 20.1467 93.9461 20.536C94.0847 20.9253 94.1541 21.352 94.1541 21.816V27H93.2581C93.0714 27 92.9274 26.9733 92.8261 26.92C92.7247 26.8613 92.6447 26.7467 92.5861 26.576L92.4101 25.984C92.2021 26.1707 91.9994 26.336 91.8021 26.48C91.6047 26.6187 91.3994 26.736 91.1861 26.832C90.9727 26.928 90.7434 27 90.4981 27.048C90.2581 27.1013 89.9914 27.128 89.6981 27.128C89.3514 27.128 89.0314 27.0827 88.7381 26.992C88.4447 26.896 88.1914 26.7547 87.9781 26.568C87.7647 26.3813 87.5994 26.1493 87.4821 25.872C87.3647 25.5947 87.3061 25.272 87.3061 24.904C87.3061 24.696 87.3407 24.4907 87.4101 24.288C87.4794 24.08 87.5914 23.8827 87.7461 23.696C87.9061 23.5093 88.1114 23.3333 88.3621 23.168C88.6127 23.0027 88.9194 22.8587 89.2821 22.736C89.6501 22.6133 90.0767 22.5147 90.5621 22.44C91.0474 22.36 91.6021 22.312 92.2261 22.296V21.816C92.2261 21.2667 92.1087 20.8613 91.8741 20.6C91.6394 20.3333 91.3007 20.2 90.8581 20.2C90.5381 20.2 90.2714 20.2373 90.0581 20.312C89.8501 20.3867 89.6661 20.472 89.5061 20.568C89.3461 20.6587 89.1994 20.7413 89.0661 20.816C88.9381 20.8907 88.7941 20.928 88.6341 20.928C88.4954 20.928 88.3781 20.8933 88.2821 20.824C88.1861 20.7493 88.1087 20.664 88.0501 20.568L87.6981 19.936ZM103.228 18.792L99.9716 27H98.1796L94.9236 18.792H96.5556C96.7049 18.792 96.8276 18.8267 96.9236 18.896C97.0249 18.9653 97.0916 19.0533 97.1236 19.16L98.7076 23.544C98.7929 23.8 98.8676 24.0507 98.9316 24.296C98.9956 24.5413 99.0516 24.7867 99.0996 25.032C99.1529 24.7867 99.2116 24.5413 99.2756 24.296C99.3396 24.0507 99.4169 23.8 99.5076 23.544L101.124 19.16C101.161 19.0533 101.228 18.9653 101.324 18.896C101.42 18.8267 101.534 18.792 101.668 18.792H103.228ZM109.319 21.952C109.319 21.696 109.281 21.456 109.207 21.232C109.137 21.0027 109.031 20.8027 108.887 20.632C108.743 20.4613 108.559 20.328 108.335 20.232C108.116 20.1307 107.86 20.08 107.567 20.08C106.996 20.08 106.545 20.2427 106.215 20.568C105.889 20.8933 105.681 21.3547 105.591 21.952H109.319ZM105.551 23.144C105.583 23.5653 105.657 23.9307 105.775 24.24C105.892 24.544 106.047 24.7973 106.239 25C106.431 25.1973 106.657 25.3467 106.919 25.448C107.185 25.544 107.479 25.592 107.799 25.592C108.119 25.592 108.393 25.5547 108.623 25.48C108.857 25.4053 109.06 25.3227 109.231 25.232C109.407 25.1413 109.559 25.0587 109.687 24.984C109.82 24.9093 109.948 24.872 110.071 24.872C110.236 24.872 110.359 24.9333 110.439 25.056L111.007 25.776C110.788 26.032 110.543 26.248 110.271 26.424C109.999 26.5947 109.713 26.7333 109.415 26.84C109.121 26.9413 108.82 27.0133 108.511 27.056C108.207 27.0987 107.911 27.12 107.623 27.12C107.052 27.12 106.521 27.0267 106.031 26.84C105.54 26.648 105.113 26.368 104.751 26C104.388 25.6267 104.103 25.168 103.895 24.624C103.687 24.0747 103.583 23.44 103.583 22.72C103.583 22.16 103.673 21.6347 103.855 21.144C104.036 20.648 104.295 20.2187 104.631 19.856C104.972 19.488 105.385 19.1973 105.871 18.984C106.361 18.7707 106.913 18.664 107.527 18.664C108.044 18.664 108.521 18.7467 108.959 18.912C109.396 19.0773 109.772 19.32 110.087 19.64C110.401 19.9547 110.647 20.344 110.823 20.808C111.004 21.2667 111.095 21.792 111.095 22.384C111.095 22.6827 111.063 22.8853 110.999 22.992C110.935 23.0933 110.812 23.144 110.631 23.144H105.551ZM123.518 18.792L119.046 29.256C118.987 29.3947 118.91 29.4987 118.814 29.568C118.723 29.6427 118.582 29.68 118.39 29.68H116.918L118.454 26.384L115.134 18.792H116.87C117.025 18.792 117.145 18.8293 117.23 18.904C117.321 18.9787 117.387 19.064 117.43 19.16L119.174 23.416C119.233 23.56 119.281 23.704 119.318 23.848C119.361 23.992 119.401 24.1387 119.438 24.288C119.486 24.1387 119.534 23.992 119.582 23.848C119.63 23.6987 119.683 23.552 119.742 23.408L121.39 19.16C121.433 19.0533 121.502 18.9653 121.598 18.896C121.699 18.8267 121.811 18.792 121.934 18.792H123.518ZM127.881 18.664C128.489 18.664 129.041 18.7627 129.537 18.96C130.039 19.1573 130.465 19.4373 130.817 19.8C131.175 20.1627 131.449 20.6053 131.641 21.128C131.833 21.6507 131.929 22.2347 131.929 22.88C131.929 23.5307 131.833 24.1173 131.641 24.64C131.449 25.1627 131.175 25.608 130.817 25.976C130.465 26.344 130.039 26.6267 129.537 26.824C129.041 27.0213 128.489 27.12 127.881 27.12C127.268 27.12 126.711 27.0213 126.209 26.824C125.708 26.6267 125.279 26.344 124.921 25.976C124.569 25.608 124.295 25.1627 124.097 24.64C123.905 24.1173 123.809 23.5307 123.809 22.88C123.809 22.2347 123.905 21.6507 124.097 21.128C124.295 20.6053 124.569 20.1627 124.921 19.8C125.279 19.4373 125.708 19.1573 126.209 18.96C126.711 18.7627 127.268 18.664 127.881 18.664ZM127.881 25.6C128.564 25.6 129.068 25.3707 129.393 24.912C129.724 24.4533 129.889 23.7813 129.889 22.896C129.889 22.0107 129.724 21.336 129.393 20.872C129.068 20.408 128.564 20.176 127.881 20.176C127.188 20.176 126.673 20.4107 126.337 20.88C126.007 21.344 125.841 22.016 125.841 22.896C125.841 23.776 126.007 24.448 126.337 24.912C126.673 25.3707 127.188 25.6 127.881 25.6ZM140.509 18.792V27H139.301C139.04 27 138.874 26.88 138.805 26.64L138.669 25.984C138.333 26.3253 137.962 26.6027 137.557 26.816C137.152 27.024 136.674 27.128 136.125 27.128C135.677 27.128 135.28 27.0533 134.933 26.904C134.592 26.7493 134.304 26.5333 134.069 26.256C133.834 25.9787 133.656 25.6507 133.533 25.272C133.416 24.888 133.357 24.4667 133.357 24.008V18.792H135.333V24.008C135.333 24.5093 135.448 24.8987 135.677 25.176C135.912 25.448 136.261 25.584 136.725 25.584C137.066 25.584 137.386 25.5093 137.685 25.36C137.984 25.2053 138.266 24.9947 138.533 24.728V18.792H140.509ZM144.332 20.216C144.588 19.7253 144.892 19.3413 145.244 19.064C145.596 18.7813 146.012 18.64 146.492 18.64C146.871 18.64 147.175 18.7227 147.404 18.888L147.276 20.368C147.25 20.464 147.21 20.5333 147.156 20.576C147.108 20.6133 147.042 20.632 146.956 20.632C146.876 20.632 146.756 20.6187 146.596 20.592C146.442 20.5653 146.29 20.552 146.14 20.552C145.922 20.552 145.727 20.584 145.556 20.648C145.386 20.712 145.231 20.8053 145.092 20.928C144.959 21.0453 144.839 21.1893 144.732 21.36C144.631 21.5307 144.535 21.7253 144.444 21.944V27H142.468V18.792H143.628C143.831 18.792 143.972 18.8293 144.052 18.904C144.132 18.9733 144.186 19.1013 144.212 19.288L144.332 20.216ZM153.96 24.872C154.184 25.144 154.426 25.336 154.688 25.448C154.954 25.56 155.242 25.616 155.552 25.616C155.85 25.616 156.12 25.56 156.36 25.448C156.6 25.336 156.802 25.1653 156.968 24.936C157.138 24.7067 157.269 24.4187 157.36 24.072C157.45 23.72 157.496 23.3067 157.496 22.832C157.496 22.352 157.456 21.9467 157.376 21.616C157.301 21.28 157.192 21.008 157.048 20.8C156.904 20.592 156.728 20.44 156.52 20.344C156.317 20.248 156.085 20.2 155.824 20.2C155.413 20.2 155.064 20.288 154.776 20.464C154.488 20.6347 154.216 20.8773 153.96 21.192V24.872ZM153.856 19.912C154.192 19.5333 154.573 19.2267 155 18.992C155.426 18.7573 155.928 18.64 156.504 18.64C156.952 18.64 157.36 18.7333 157.728 18.92C158.101 19.1067 158.421 19.3787 158.688 19.736C158.96 20.088 159.168 20.5253 159.312 21.048C159.461 21.5653 159.536 22.16 159.536 22.832C159.536 23.4453 159.453 24.0133 159.288 24.536C159.122 25.0587 158.885 25.512 158.576 25.896C158.272 26.28 157.901 26.5813 157.464 26.8C157.032 27.0133 156.546 27.12 156.008 27.12C155.549 27.12 155.157 27.0507 154.832 26.912C154.506 26.768 154.216 26.5707 153.96 26.32V29.68H151.984V18.792H153.192C153.448 18.792 153.616 18.912 153.696 19.152L153.856 19.912ZM162.942 20.216C163.198 19.7253 163.502 19.3413 163.854 19.064C164.206 18.7813 164.622 18.64 165.102 18.64C165.48 18.64 165.784 18.7227 166.014 18.888L165.886 20.368C165.859 20.464 165.819 20.5333 165.766 20.576C165.718 20.6133 165.651 20.632 165.566 20.632C165.486 20.632 165.366 20.6187 165.206 20.592C165.051 20.5653 164.899 20.552 164.75 20.552C164.531 20.552 164.336 20.584 164.166 20.648C163.995 20.712 163.84 20.8053 163.702 20.928C163.568 21.0453 163.448 21.1893 163.342 21.36C163.24 21.5307 163.144 21.7253 163.054 21.944V27H161.078V18.792H162.238C162.44 18.792 162.582 18.8293 162.662 18.904C162.742 18.9733 162.795 19.1013 162.822 19.288L162.942 20.216ZM170.444 18.664C171.052 18.664 171.604 18.7627 172.1 18.96C172.601 19.1573 173.028 19.4373 173.38 19.8C173.737 20.1627 174.012 20.6053 174.204 21.128C174.396 21.6507 174.492 22.2347 174.492 22.88C174.492 23.5307 174.396 24.1173 174.204 24.64C174.012 25.1627 173.737 25.608 173.38 25.976C173.028 26.344 172.601 26.6267 172.1 26.824C171.604 27.0213 171.052 27.12 170.444 27.12C169.831 27.12 169.273 27.0213 168.772 26.824C168.271 26.6267 167.841 26.344 167.484 25.976C167.132 25.608 166.857 25.1627 166.66 24.64C166.468 24.1173 166.372 23.5307 166.372 22.88C166.372 22.2347 166.468 21.6507 166.66 21.128C166.857 20.6053 167.132 20.1627 167.484 19.8C167.841 19.4373 168.271 19.1573 168.772 18.96C169.273 18.7627 169.831 18.664 170.444 18.664ZM170.444 25.6C171.127 25.6 171.631 25.3707 171.956 24.912C172.287 24.4533 172.452 23.7813 172.452 22.896C172.452 22.0107 172.287 21.336 171.956 20.872C171.631 20.408 171.127 20.176 170.444 20.176C169.751 20.176 169.236 20.4107 168.9 20.88C168.569 21.344 168.404 22.016 168.404 22.896C168.404 23.776 168.569 24.448 168.9 24.912C169.236 25.3707 169.751 25.6 170.444 25.6ZM178.937 22.696C179.182 22.696 179.396 22.664 179.577 22.6C179.758 22.5307 179.908 22.4373 180.025 22.32C180.148 22.2027 180.238 22.0613 180.297 21.896C180.361 21.7307 180.393 21.5493 180.393 21.352C180.393 20.9467 180.27 20.6267 180.025 20.392C179.785 20.152 179.422 20.032 178.937 20.032C178.452 20.032 178.086 20.152 177.841 20.392C177.601 20.6267 177.481 20.9467 177.481 21.352C177.481 21.544 177.51 21.7227 177.569 21.888C177.633 22.0533 177.724 22.1973 177.841 22.32C177.964 22.4373 178.116 22.5307 178.297 22.6C178.484 22.664 178.697 22.696 178.937 22.696ZM181.169 27.368C181.169 27.208 181.121 27.0773 181.025 26.976C180.929 26.8747 180.798 26.7973 180.633 26.744C180.468 26.6853 180.273 26.6427 180.049 26.616C179.83 26.5893 179.596 26.5707 179.345 26.56C179.1 26.544 178.844 26.5307 178.577 26.52C178.316 26.5093 178.06 26.488 177.809 26.456C177.59 26.5787 177.412 26.7227 177.273 26.888C177.14 27.0533 177.073 27.2453 177.073 27.464C177.073 27.608 177.108 27.7413 177.177 27.864C177.252 27.992 177.366 28.1013 177.521 28.192C177.681 28.2827 177.886 28.352 178.137 28.4C178.388 28.4533 178.694 28.48 179.057 28.48C179.425 28.48 179.742 28.4507 180.009 28.392C180.276 28.3387 180.494 28.2613 180.665 28.16C180.841 28.064 180.969 27.9467 181.049 27.808C181.129 27.6747 181.169 27.528 181.169 27.368ZM183.137 19.072V19.808C183.137 20.0427 182.996 20.1867 182.713 20.24L181.977 20.376C182.089 20.6587 182.145 20.968 182.145 21.304C182.145 21.7093 182.062 22.0773 181.897 22.408C181.737 22.7333 181.513 23.0107 181.225 23.24C180.937 23.4693 180.596 23.648 180.201 23.776C179.812 23.8987 179.39 23.96 178.937 23.96C178.777 23.96 178.622 23.952 178.473 23.936C178.324 23.92 178.177 23.8987 178.033 23.872C177.777 24.0267 177.649 24.2 177.649 24.392C177.649 24.5573 177.724 24.68 177.873 24.76C178.028 24.8347 178.23 24.888 178.481 24.92C178.732 24.952 179.017 24.9733 179.337 24.984C179.657 24.9893 179.985 25.0053 180.321 25.032C180.657 25.0587 180.985 25.1067 181.305 25.176C181.625 25.24 181.91 25.344 182.161 25.488C182.412 25.632 182.612 25.8293 182.761 26.08C182.916 26.3253 182.993 26.6427 182.993 27.032C182.993 27.3947 182.902 27.7467 182.721 28.088C182.545 28.4293 182.286 28.7333 181.945 29C181.609 29.2667 181.193 29.48 180.697 29.64C180.206 29.8053 179.646 29.888 179.017 29.888C178.398 29.888 177.86 29.8267 177.401 29.704C176.942 29.5867 176.561 29.4267 176.257 29.224C175.953 29.0267 175.726 28.7973 175.577 28.536C175.428 28.2747 175.353 28.0027 175.353 27.72C175.353 27.336 175.468 27.016 175.697 26.76C175.932 26.4987 176.252 26.2907 176.657 26.136C176.438 26.024 176.265 25.8747 176.137 25.688C176.009 25.5013 175.945 25.256 175.945 24.952C175.945 24.8293 175.966 24.704 176.009 24.576C176.057 24.4427 176.124 24.312 176.209 24.184C176.3 24.056 176.412 23.936 176.545 23.824C176.678 23.7067 176.836 23.6027 177.017 23.512C176.601 23.288 176.273 22.9893 176.033 22.616C175.798 22.2427 175.681 21.8053 175.681 21.304C175.681 20.8987 175.761 20.5333 175.921 20.208C176.086 19.8773 176.313 19.5973 176.601 19.368C176.894 19.1333 177.238 18.9547 177.633 18.832C178.033 18.7093 178.468 18.648 178.937 18.648C179.289 18.648 179.62 18.6853 179.929 18.76C180.238 18.8293 180.521 18.9333 180.777 19.072H183.137ZM186.254 20.216C186.51 19.7253 186.814 19.3413 187.166 19.064C187.518 18.7813 187.934 18.64 188.414 18.64C188.793 18.64 189.097 18.7227 189.326 18.888L189.198 20.368C189.171 20.464 189.131 20.5333 189.078 20.576C189.03 20.6133 188.963 20.632 188.878 20.632C188.798 20.632 188.678 20.6187 188.518 20.592C188.363 20.5653 188.211 20.552 188.062 20.552C187.843 20.552 187.649 20.584 187.478 20.648C187.307 20.712 187.153 20.8053 187.014 20.928C186.881 21.0453 186.761 21.1893 186.654 21.36C186.553 21.5307 186.457 21.7253 186.366 21.944V27H184.39V18.792H185.55C185.753 18.792 185.894 18.8293 185.974 18.904C186.054 18.9733 186.107 19.1013 186.134 19.288L186.254 20.216ZM195.412 21.952C195.412 21.696 195.375 21.456 195.3 21.232C195.231 21.0027 195.124 20.8027 194.98 20.632C194.836 20.4613 194.652 20.328 194.428 20.232C194.21 20.1307 193.954 20.08 193.66 20.08C193.09 20.08 192.639 20.2427 192.308 20.568C191.983 20.8933 191.775 21.3547 191.684 21.952H195.412ZM191.644 23.144C191.676 23.5653 191.751 23.9307 191.868 24.24C191.986 24.544 192.14 24.7973 192.332 25C192.524 25.1973 192.751 25.3467 193.012 25.448C193.279 25.544 193.572 25.592 193.892 25.592C194.212 25.592 194.487 25.5547 194.716 25.48C194.951 25.4053 195.154 25.3227 195.324 25.232C195.5 25.1413 195.652 25.0587 195.78 24.984C195.914 24.9093 196.042 24.872 196.164 24.872C196.33 24.872 196.452 24.9333 196.532 25.056L197.1 25.776C196.882 26.032 196.636 26.248 196.364 26.424C196.092 26.5947 195.807 26.7333 195.508 26.84C195.215 26.9413 194.914 27.0133 194.604 27.056C194.3 27.0987 194.004 27.12 193.716 27.12C193.146 27.12 192.615 27.0267 192.124 26.84C191.634 26.648 191.207 26.368 190.844 26C190.482 25.6267 190.196 25.168 189.988 24.624C189.78 24.0747 189.676 23.44 189.676 22.72C189.676 22.16 189.767 21.6347 189.948 21.144C190.13 20.648 190.388 20.2187 190.724 19.856C191.066 19.488 191.479 19.1973 191.964 18.984C192.455 18.7707 193.007 18.664 193.62 18.664C194.138 18.664 194.615 18.7467 195.052 18.912C195.49 19.0773 195.866 19.32 196.18 19.64C196.495 19.9547 196.74 20.344 196.916 20.808C197.098 21.2667 197.188 21.792 197.188 22.384C197.188 22.6827 197.156 22.8853 197.092 22.992C197.028 23.0933 196.906 23.144 196.724 23.144H191.644ZM203.679 20.392C203.626 20.4773 203.57 20.5387 203.511 20.576C203.453 20.608 203.378 20.624 203.287 20.624C203.191 20.624 203.087 20.5973 202.975 20.544C202.869 20.4907 202.743 20.432 202.599 20.368C202.455 20.2987 202.29 20.2373 202.103 20.184C201.922 20.1307 201.706 20.104 201.455 20.104C201.066 20.104 200.759 20.1867 200.535 20.352C200.317 20.5173 200.207 20.7333 200.207 21C200.207 21.176 200.263 21.3253 200.375 21.448C200.493 21.5653 200.645 21.6693 200.831 21.76C201.023 21.8507 201.239 21.9333 201.479 22.008C201.719 22.0773 201.962 22.1547 202.207 22.24C202.458 22.3253 202.703 22.424 202.943 22.536C203.183 22.6427 203.397 22.7813 203.583 22.952C203.775 23.1173 203.927 23.3173 204.039 23.552C204.157 23.7867 204.215 24.0693 204.215 24.4C204.215 24.7947 204.143 25.16 203.999 25.496C203.861 25.8267 203.653 26.1147 203.375 26.36C203.098 26.6 202.754 26.7893 202.343 26.928C201.938 27.0613 201.469 27.128 200.935 27.128C200.653 27.128 200.375 27.1013 200.103 27.048C199.837 27 199.578 26.9307 199.327 26.84C199.082 26.7493 198.853 26.6427 198.639 26.52C198.431 26.3973 198.247 26.264 198.087 26.12L198.543 25.368C198.602 25.2773 198.671 25.208 198.751 25.16C198.831 25.112 198.933 25.088 199.055 25.088C199.178 25.088 199.293 25.1227 199.399 25.192C199.511 25.2613 199.639 25.336 199.783 25.416C199.927 25.496 200.095 25.5707 200.287 25.64C200.485 25.7093 200.733 25.744 201.031 25.744C201.266 25.744 201.466 25.7173 201.631 25.664C201.802 25.6053 201.941 25.5307 202.047 25.44C202.159 25.3493 202.239 25.2453 202.287 25.128C202.341 25.0053 202.367 24.88 202.367 24.752C202.367 24.56 202.309 24.4027 202.191 24.28C202.079 24.1573 201.927 24.0507 201.735 23.96C201.549 23.8693 201.333 23.7893 201.087 23.72C200.847 23.6453 200.599 23.5653 200.343 23.48C200.093 23.3947 199.845 23.296 199.599 23.184C199.359 23.0667 199.143 22.92 198.951 22.744C198.765 22.568 198.613 22.352 198.495 22.096C198.383 21.84 198.327 21.5307 198.327 21.168C198.327 20.832 198.394 20.512 198.527 20.208C198.661 19.904 198.855 19.64 199.111 19.416C199.373 19.1867 199.695 19.0053 200.079 18.872C200.469 18.7333 200.917 18.664 201.423 18.664C201.989 18.664 202.503 18.7573 202.967 18.944C203.431 19.1307 203.818 19.376 204.127 19.68L203.679 20.392ZM210.711 20.392C210.657 20.4773 210.601 20.5387 210.543 20.576C210.484 20.608 210.409 20.624 210.319 20.624C210.223 20.624 210.119 20.5973 210.007 20.544C209.9 20.4907 209.775 20.432 209.631 20.368C209.487 20.2987 209.321 20.2373 209.135 20.184C208.953 20.1307 208.737 20.104 208.487 20.104C208.097 20.104 207.791 20.1867 207.567 20.352C207.348 20.5173 207.239 20.7333 207.239 21C207.239 21.176 207.295 21.3253 207.407 21.448C207.524 21.5653 207.676 21.6693 207.863 21.76C208.055 21.8507 208.271 21.9333 208.511 22.008C208.751 22.0773 208.993 22.1547 209.239 22.24C209.489 22.3253 209.735 22.424 209.975 22.536C210.215 22.6427 210.428 22.7813 210.615 22.952C210.807 23.1173 210.959 23.3173 211.071 23.552C211.188 23.7867 211.247 24.0693 211.247 24.4C211.247 24.7947 211.175 25.16 211.031 25.496C210.892 25.8267 210.684 26.1147 210.407 26.36C210.129 26.6 209.785 26.7893 209.375 26.928C208.969 27.0613 208.5 27.128 207.967 27.128C207.684 27.128 207.407 27.1013 207.135 27.048C206.868 27 206.609 26.9307 206.359 26.84C206.113 26.7493 205.884 26.6427 205.671 26.52C205.463 26.3973 205.279 26.264 205.119 26.12L205.575 25.368C205.633 25.2773 205.703 25.208 205.783 25.16C205.863 25.112 205.964 25.088 206.087 25.088C206.209 25.088 206.324 25.1227 206.431 25.192C206.543 25.2613 206.671 25.336 206.815 25.416C206.959 25.496 207.127 25.5707 207.319 25.64C207.516 25.7093 207.764 25.744 208.063 25.744C208.297 25.744 208.497 25.7173 208.663 25.664C208.833 25.6053 208.972 25.5307 209.079 25.44C209.191 25.3493 209.271 25.2453 209.319 25.128C209.372 25.0053 209.399 24.88 209.399 24.752C209.399 24.56 209.34 24.4027 209.223 24.28C209.111 24.1573 208.959 24.0507 208.767 23.96C208.58 23.8693 208.364 23.7893 208.119 23.72C207.879 23.6453 207.631 23.5653 207.375 23.48C207.124 23.3947 206.876 23.296 206.631 23.184C206.391 23.0667 206.175 22.92 205.983 22.744C205.796 22.568 205.644 22.352 205.527 22.096C205.415 21.84 205.359 21.5307 205.359 21.168C205.359 20.832 205.425 20.512 205.559 20.208C205.692 19.904 205.887 19.64 206.143 19.416C206.404 19.1867 206.727 19.0053 207.111 18.872C207.5 18.7333 207.948 18.664 208.455 18.664C209.02 18.664 209.535 18.7573 209.999 18.944C210.463 19.1307 210.849 19.376 211.159 19.68L210.711 20.392Z" fill="#DBF9FF"/>
<path d="M183.509 39.9998C183.506 39.9999 183.503 40 183.5 40L183.509 39.9998C183.98 39.9781 190.02 38.3278 193 37.5L203.5 39.5L183.509 39.9998Z" fill="#3296B5"/>
<path d="M63.5 4.5L53 1.5H73.5L72.5 6.5L70.5 3.5L63.5 4.5Z" fill="#3296B5"/>
<path d="M237 11.5H243.5H244V15.5L243.5 25.5L240 17.5L243.5 13.5L237 11.5Z" fill="#3296B5"/>
<path d="M73 38L69 40H81L81.5 39L78.5 37L77.5 36L77 33.5L75.5 36.5H74.5L73 38Z" fill="#3296B5"/>
<rect x="243" y="13" width="5" height="16" rx="2" fill="#1C6880"/>
<rect x="42" y="13" width="5" height="16" rx="2" fill="#1C6880"/>
<g filter="url(#filter3_d)">
<path d="M230.175 5.50016L232.087 2.36235L233 2.00017L234.494 0.500153L236.141 5.90228L238.5 7.00017L240.351 8.87997L242.43 9.15525L247 8.24294C247 8.24294 243.837 10.4931 242.5 12.0002L241.606 10.3072L239.5 9.50017L237.316 7.9665L234.494 8.20611L234.494 7.00017L234 2.50015L230.175 5.50016Z" fill="url(#paint1_linear)"/>
</g>
<g filter="url(#filter4_d)">
<path d="M48.5242 32.3828L45 29.9739L46.046 32.833L47.8884 34.9219L48.4658 38.1007L53.4731 38.2856L53.9223 40.7579L58.095 41.8242L61.1446 39.446L63.2312 37.2427L57.7742 40.0582L55.6881 36.7887L49.6536 36.4255L49.3328 34.6595L48.5242 32.3828Z" fill="url(#paint2_linear)"/>
</g>
<g filter="url(#filter5_d)">
<path d="M50 4L56 2L52 6.5L48 11H40L48.5 8L50 4Z" fill="url(#paint3_linear)"/>
</g>
<g filter="url(#filter6_df)">
<circle cx="218" cy="42" r="1" fill="url(#paint4_linear)"/>
<circle cx="218" cy="42" r="1" stroke="#E1C45D" stroke-width="0.2"/>
</g>
<g filter="url(#filter7_df)">
<circle cx="100" cy="3" r="1" fill="url(#paint5_linear)"/>
<circle cx="100" cy="3" r="1" stroke="#E1C45D" stroke-width="0.2"/>
</g>
<g filter="url(#filter8_df)">
<circle cx="257" cy="17" r="1" fill="url(#paint6_linear)"/>
<circle cx="257" cy="17" r="1" stroke="#E1C45D" stroke-width="0.2"/>
</g>
<g filter="url(#filter9_df)">
<circle cx="272" cy="37" r="1" fill="url(#paint7_linear)"/>
<circle cx="272" cy="37" r="1" stroke="#E1C45D" stroke-width="0.2"/>
</g>
<g filter="url(#filter10_df)">
<circle cx="37" cy="17" r="1" fill="url(#paint8_linear)"/>
<circle cx="37" cy="17" r="1" stroke="#E1C45D" stroke-width="0.2"/>
</g>
<g filter="url(#filter11_df)">
<circle cx="5" cy="34" r="1" fill="url(#paint9_linear)"/>
<circle cx="5" cy="34" r="1" stroke="#E1C45D" stroke-width="0.2"/>
</g>
<g filter="url(#filter12_df)">
<circle cx="71" cy="43" r="1" fill="url(#paint10_linear)"/>
<circle cx="71" cy="43" r="1" stroke="#E1C45D" stroke-width="0.2"/>
</g>
<g filter="url(#filter13_df)">
<circle cx="52" cy="12" r="1" fill="url(#paint11_linear)"/>
<circle cx="52" cy="12" r="1" stroke="#E1C45D" stroke-width="0.2"/>
</g>
<g filter="url(#filter14_f)">
<circle cx="230" cy="5" r="1" fill="url(#paint12_linear)"/>
<circle cx="230" cy="5" r="1" stroke="#E1C45D" stroke-width="0.2"/>
</g>
<g filter="url(#filter15_f)">
<circle cx="241" cy="40" r="1" fill="url(#paint13_linear)"/>
<circle cx="241" cy="40" r="1" stroke="#E1C45D" stroke-width="0.2"/>
</g>
<g filter="url(#filter16_f)">
<circle cx="63" cy="37.0222" r="1" fill="url(#paint14_linear)"/>
<circle cx="63" cy="37.0222" r="1" stroke="#E1C45D" stroke-width="0.2"/>
</g>
<g opacity="0.5" filter="url(#filter17_f)">
<circle r="0.5" transform="matrix(1 0 0 -1 59.5 37.5)" fill="url(#paint15_linear)"/>
<circle r="0.5" transform="matrix(1 0 0 -1 59.5 37.5)" stroke="#E1C45D" stroke-width="0.2"/>
</g>
<g opacity="0.5" filter="url(#filter18_f)">
<circle r="0.5" transform="matrix(1 0 0 -1 108.5 2.5)" fill="url(#paint16_linear)"/>
<circle r="0.5" transform="matrix(1 0 0 -1 108.5 2.5)" stroke="#E1C45D" stroke-width="0.2"/>
</g>
<g filter="url(#filter19_f)">
<circle cx="56" cy="2" r="1" fill="url(#paint17_linear)"/>
<circle cx="56" cy="2" r="1" stroke="#E1C45D" stroke-width="0.2"/>
</g>
<g filter="url(#filter20_d)">
<path d="M178.5 1.5L180.5 0L178.5 3L173 5L176 2L178.5 1.5Z" fill="url(#paint18_linear)"/>
</g>
<g filter="url(#filter21_f)">
<circle cx="42" cy="32" r="1" fill="url(#paint19_linear)"/>
<circle cx="42" cy="32" r="1" stroke="#E1C45D" stroke-width="0.2"/>
</g>
<g opacity="0.2" filter="url(#filter22_f)">
<circle cx="215" cy="6" r="1" fill="url(#paint20_linear)"/>
<circle cx="215" cy="6" r="1" stroke="#E1C45D" stroke-width="0.2"/>
</g>
<g filter="url(#filter23_d)">
<path d="M150 39L147 36L150 42L152.5 40C153.667 40.8333 156 42.6 156 43C156 43.4 156.667 41.1667 157 40L159.5 41L161.5 39.5L163.5 38L158 39.5L152 38L150 39Z" fill="url(#paint21_linear)"/>
</g>
<g filter="url(#filter24_d)">
<path d="M224 39.5L218 37L219 39L223.5 41.5L227.5 40V42.5L231.5 41.5L234.5 40.5L236.5 42.5L240.5 45L241 40.5C240.667 41.1667 240.066 43 239.5 43C239 43 237.5 40.6667 236.5 39.5L230.5 40.5L227.5 39L224 39.5Z" fill="url(#paint22_linear)"/>
</g>
<g filter="url(#filter25_d)">
<path d="M31.5 19L35.5 22.5H29.5L24.5 26L19 32L15 31L8 32.5L6.5 27.5V27L9 30L18 28.5L24.5 24L31.5 19Z" fill="url(#paint23_linear)"/>
</g>
<g filter="url(#filter26_d)">
<path d="M259 19L255 22.5H261L266 26L271.5 32L275.5 31L282.5 32.5L284 27.5V27L281.5 30L272.5 28.5L266 24L259 19Z" fill="url(#paint24_linear)"/>
</g>
</g>
<defs>
<filter id="filter0_d" x="243.658" y="18.8909" width="45.8423" height="14.1533" filterUnits="userSpaceOnUse" color-interpolation-filters="sRGB">
<feFlood flood-opacity="0" result="BackgroundImageFix"/>
<feColorMatrix in="SourceAlpha" type="matrix" values="0 0 0 0 0 0 0 0 0 0 0 0 0 0 0 0 0 0 127 0" result="hardAlpha"/>
<feOffset dy="3"/>
<feColorMatrix type="matrix" values="0 0 0 0 0 0 0 0 0 0 0 0 0 0 0 0 0 0 0.1 0"/>
<feBlend mode="normal" in2="BackgroundImageFix" result="effect1_dropShadow"/>
<feBlend mode="normal" in="SourceGraphic" in2="effect1_dropShadow" result="shape"/>
</filter>
<filter id="filter1_d" x="1.00024" y="18.8906" width="47" height="13.6113" filterUnits="userSpaceOnUse" color-interpolation-filters="sRGB">
<feFlood flood-opacity="0" result="BackgroundImageFix"/>
<feColorMatrix in="SourceAlpha" type="matrix" values="0 0 0 0 0 0 0 0 0 0 0 0 0 0 0 0 0 0 127 0" result="hardAlpha"/>
<feOffset dy="3"/>
<feColorMatrix type="matrix" values="0 0 0 0 0 0 0 0 0 0 0 0 0 0 0 0 0 0 0.1 0"/>
<feBlend mode="normal" in2="BackgroundImageFix" result="effect1_dropShadow"/>
<feBlend mode="normal" in="SourceGraphic" in2="effect1_dropShadow" result="shape"/>
</filter>
<filter id="filter2_d" x="45" y="0" width="200" height="46" filterUnits="userSpaceOnUse" color-interpolation-filters="sRGB">
<feFlood flood-opacity="0" result="BackgroundImageFix"/>
<feColorMatrix in="SourceAlpha" type="matrix" values="0 0 0 0 0 0 0 0 0 0 0 0 0 0 0 0 0 0 127 0" result="hardAlpha"/>
<feOffset dy="4"/>
<feColorMatrix type="matrix" values="0 0 0 0 0 0 0 0 0 0 0 0 0 0 0 0 0 0 0.1 0"/>
<feBlend mode="normal" in2="BackgroundImageFix" result="effect1_dropShadow"/>
<feBlend mode="normal" in="SourceGraphic" in2="effect1_dropShadow" result="shape"/>
</filter>
<filter id="filter3_d" x="223.175" y="-6.49976" width="30.8254" height="25.5" filterUnits="userSpaceOnUse" color-interpolation-filters="sRGB">
<feFlood flood-opacity="0" result="BackgroundImageFix"/>
<feColorMatrix in="SourceAlpha" type="matrix" values="0 0 0 0 0 0 0 0 0 0 0 0 0 0 0 0 0 0 127 0" result="hardAlpha"/>
<feOffset/>
<feGaussianBlur stdDeviation="3.5"/>
<feComposite in2="hardAlpha" operator="out"/>
<feColorMatrix type="matrix" values="0 0 0 0 0.849986 0 0 0 0 0.796249 0 0 0 0 0.312621 0 0 0 0.9 0"/>
<feBlend mode="normal" in2="BackgroundImageFix" result="effect1_dropShadow"/>
<feBlend mode="normal" in="SourceGraphic" in2="effect1_dropShadow" result="shape"/>
</filter>
<filter id="filter4_d" x="38" y="22.9739" width="32.2312" height="25.8503" filterUnits="userSpaceOnUse" color-interpolation-filters="sRGB">
<feFlood flood-opacity="0" result="BackgroundImageFix"/>
<feColorMatrix in="SourceAlpha" type="matrix" values="0 0 0 0 0 0 0 0 0 0 0 0 0 0 0 0 0 0 127 0" result="hardAlpha"/>
<feOffset/>
<feGaussianBlur stdDeviation="3.5"/>
<feComposite in2="hardAlpha" operator="out"/>
<feColorMatrix type="matrix" values="0 0 0 0 0.849986 0 0 0 0 0.796249 0 0 0 0 0.312621 0 0 0 0.9 0"/>
<feBlend mode="normal" in2="BackgroundImageFix" result="effect1_dropShadow"/>
<feBlend mode="normal" in="SourceGraphic" in2="effect1_dropShadow" result="shape"/>
</filter>
<filter id="filter5_d" x="33" y="-5" width="30" height="23" filterUnits="userSpaceOnUse" color-interpolation-filters="sRGB">
<feFlood flood-opacity="0" result="BackgroundImageFix"/>
<feColorMatrix in="SourceAlpha" type="matrix" values="0 0 0 0 0 0 0 0 0 0 0 0 0 0 0 0 0 0 127 0" result="hardAlpha"/>
<feOffset/>
<feGaussianBlur stdDeviation="3.5"/>
<feComposite in2="hardAlpha" operator="out"/>
<feColorMatrix type="matrix" values="0 0 0 0 0.849986 0 0 0 0 0.796249 0 0 0 0 0.312621 0 0 0 0.9 0"/>
<feBlend mode="normal" in2="BackgroundImageFix" result="effect1_dropShadow"/>
<feBlend mode="normal" in="SourceGraphic" in2="effect1_dropShadow" result="shape"/>
</filter>
<filter id="filter6_df" x="209.9" y="33.8999" width="16.2" height="16.2" filterUnits="userSpaceOnUse" color-interpolation-filters="sRGB">
<feFlood flood-opacity="0" result="BackgroundImageFix"/>
<feColorMatrix in="SourceAlpha" type="matrix" values="0 0 0 0 0 0 0 0 0 0 0 0 0 0 0 0 0 0 127 0" result="hardAlpha"/>
<feOffset/>
<feGaussianBlur stdDeviation="3.5"/>
<feComposite in2="hardAlpha" operator="out"/>
<feColorMatrix type="matrix" values="0 0 0 0 0.849986 0 0 0 0 0.796249 0 0 0 0 0.312621 0 0 0 0.9 0"/>
<feBlend mode="normal" in2="BackgroundImageFix" result="effect1_dropShadow"/>
<feBlend mode="normal" in="SourceGraphic" in2="effect1_dropShadow" result="shape"/>
<feGaussianBlur stdDeviation="1" result="effect2_foregroundBlur"/>
</filter>
<filter id="filter7_df" x="91.8999" y="-5.1001" width="16.2" height="16.2" filterUnits="userSpaceOnUse" color-interpolation-filters="sRGB">
<feFlood flood-opacity="0" result="BackgroundImageFix"/>
<feColorMatrix in="SourceAlpha" type="matrix" values="0 0 0 0 0 0 0 0 0 0 0 0 0 0 0 0 0 0 127 0" result="hardAlpha"/>
<feOffset/>
<feGaussianBlur stdDeviation="3.5"/>
<feComposite in2="hardAlpha" operator="out"/>
<feColorMatrix type="matrix" values="0 0 0 0 0.849986 0 0 0 0 0.796249 0 0 0 0 0.312621 0 0 0 0.9 0"/>
<feBlend mode="normal" in2="BackgroundImageFix" result="effect1_dropShadow"/>
<feBlend mode="normal" in="SourceGraphic" in2="effect1_dropShadow" result="shape"/>
<feGaussianBlur stdDeviation="1" result="effect2_foregroundBlur"/>
</filter>
<filter id="filter8_df" x="248.9" y="8.8999" width="16.2" height="16.2" filterUnits="userSpaceOnUse" color-interpolation-filters="sRGB">
<feFlood flood-opacity="0" result="BackgroundImageFix"/>
<feColorMatrix in="SourceAlpha" type="matrix" values="0 0 0 0 0 0 0 0 0 0 0 0 0 0 0 0 0 0 127 0" result="hardAlpha"/>
<feOffset/>
<feGaussianBlur stdDeviation="3.5"/>
<feComposite in2="hardAlpha" operator="out"/>
<feColorMatrix type="matrix" values="0 0 0 0 0.849986 0 0 0 0 0.796249 0 0 0 0 0.312621 0 0 0 0.9 0"/>
<feBlend mode="normal" in2="BackgroundImageFix" result="effect1_dropShadow"/>
<feBlend mode="normal" in="SourceGraphic" in2="effect1_dropShadow" result="shape"/>
<feGaussianBlur stdDeviation="1" result="effect2_foregroundBlur"/>
</filter>
<filter id="filter9_df" x="263.9" y="28.8999" width="16.2" height="16.2" filterUnits="userSpaceOnUse" color-interpolation-filters="sRGB">
<feFlood flood-opacity="0" result="BackgroundImageFix"/>
<feColorMatrix in="SourceAlpha" type="matrix" values="0 0 0 0 0 0 0 0 0 0 0 0 0 0 0 0 0 0 127 0" result="hardAlpha"/>
<feOffset/>
<feGaussianBlur stdDeviation="3.5"/>
<feComposite in2="hardAlpha" operator="out"/>
<feColorMatrix type="matrix" values="0 0 0 0 0.849986 0 0 0 0 0.796249 0 0 0 0 0.312621 0 0 0 0.9 0"/>
<feBlend mode="normal" in2="BackgroundImageFix" result="effect1_dropShadow"/>
<feBlend mode="normal" in="SourceGraphic" in2="effect1_dropShadow" result="shape"/>
<feGaussianBlur stdDeviation="1" result="effect2_foregroundBlur"/>
</filter>
<filter id="filter10_df" x="28.8999" y="8.8999" width="16.2" height="16.2" filterUnits="userSpaceOnUse" color-interpolation-filters="sRGB">
<feFlood flood-opacity="0" result="BackgroundImageFix"/>
<feColorMatrix in="SourceAlpha" type="matrix" values="0 0 0 0 0 0 0 0 0 0 0 0 0 0 0 0 0 0 127 0" result="hardAlpha"/>
<feOffset/>
<feGaussianBlur stdDeviation="3.5"/>
<feComposite in2="hardAlpha" operator="out"/>
<feColorMatrix type="matrix" values="0 0 0 0 0.849986 0 0 0 0 0.796249 0 0 0 0 0.312621 0 0 0 0.9 0"/>
<feBlend mode="normal" in2="BackgroundImageFix" result="effect1_dropShadow"/>
<feBlend mode="normal" in="SourceGraphic" in2="effect1_dropShadow" result="shape"/>
<feGaussianBlur stdDeviation="1" result="effect2_foregroundBlur"/>
</filter>
<filter id="filter11_df" x="-3.1001" y="25.8999" width="16.2" height="16.2" filterUnits="userSpaceOnUse" color-interpolation-filters="sRGB">
<feFlood flood-opacity="0" result="BackgroundImageFix"/>
<feColorMatrix in="SourceAlpha" type="matrix" values="0 0 0 0 0 0 0 0 0 0 0 0 0 0 0 0 0 0 127 0" result="hardAlpha"/>
<feOffset/>
<feGaussianBlur stdDeviation="3.5"/>
<feComposite in2="hardAlpha" operator="out"/>
<feColorMatrix type="matrix" values="0 0 0 0 0.849986 0 0 0 0 0.796249 0 0 0 0 0.312621 0 0 0 0.9 0"/>
<feBlend mode="normal" in2="BackgroundImageFix" result="effect1_dropShadow"/>
<feBlend mode="normal" in="SourceGraphic" in2="effect1_dropShadow" result="shape"/>
<feGaussianBlur stdDeviation="1" result="effect2_foregroundBlur"/>
</filter>
<filter id="filter12_df" x="62.8999" y="34.8999" width="16.2" height="16.2" filterUnits="userSpaceOnUse" color-interpolation-filters="sRGB">
<feFlood flood-opacity="0" result="BackgroundImageFix"/>
<feColorMatrix in="SourceAlpha" type="matrix" values="0 0 0 0 0 0 0 0 0 0 0 0 0 0 0 0 0 0 127 0" result="hardAlpha"/>
<feOffset/>
<feGaussianBlur stdDeviation="3.5"/>
<feComposite in2="hardAlpha" operator="out"/>
<feColorMatrix type="matrix" values="0 0 0 0 0.849986 0 0 0 0 0.796249 0 0 0 0 0.312621 0 0 0 0.9 0"/>
<feBlend mode="normal" in2="BackgroundImageFix" result="effect1_dropShadow"/>
<feBlend mode="normal" in="SourceGraphic" in2="effect1_dropShadow" result="shape"/>
<feGaussianBlur stdDeviation="1" result="effect2_foregroundBlur"/>
</filter>
<filter id="filter13_df" x="43.8999" y="3.8999" width="16.2" height="16.2" filterUnits="userSpaceOnUse" color-interpolation-filters="sRGB">
<feFlood flood-opacity="0" result="BackgroundImageFix"/>
<feColorMatrix in="SourceAlpha" type="matrix" values="0 0 0 0 0 0 0 0 0 0 0 0 0 0 0 0 0 0 127 0" result="hardAlpha"/>
<feOffset/>
<feGaussianBlur stdDeviation="3.5"/>
<feComposite in2="hardAlpha" operator="out"/>
<feColorMatrix type="matrix" values="0 0 0 0 0.849986 0 0 0 0 0.796249 0 0 0 0 0.312621 0 0 0 0.9 0"/>
<feBlend mode="normal" in2="BackgroundImageFix" result="effect1_dropShadow"/>
<feBlend mode="normal" in="SourceGraphic" in2="effect1_dropShadow" result="shape"/>
<feGaussianBlur stdDeviation="1" result="effect2_foregroundBlur"/>
</filter>
<filter id="filter14_f" x="227.9" y="2.8999" width="4.2" height="4.2" filterUnits="userSpaceOnUse" color-interpolation-filters="sRGB">
<feFlood flood-opacity="0" result="BackgroundImageFix"/>
<feBlend mode="normal" in="SourceGraphic" in2="BackgroundImageFix" result="shape"/>
<feGaussianBlur stdDeviation="0.5" result="effect1_foregroundBlur"/>
</filter>
<filter id="filter15_f" x="238.9" y="37.8999" width="4.2" height="4.2" filterUnits="userSpaceOnUse" color-interpolation-filters="sRGB">
<feFlood flood-opacity="0" result="BackgroundImageFix"/>
<feBlend mode="normal" in="SourceGraphic" in2="BackgroundImageFix" result="shape"/>
<feGaussianBlur stdDeviation="0.5" result="effect1_foregroundBlur"/>
</filter>
<filter id="filter16_f" x="60.8999" y="34.9221" width="4.2" height="4.2" filterUnits="userSpaceOnUse" color-interpolation-filters="sRGB">
<feFlood flood-opacity="0" result="BackgroundImageFix"/>
<feBlend mode="normal" in="SourceGraphic" in2="BackgroundImageFix" result="shape"/>
<feGaussianBlur stdDeviation="0.5" result="effect1_foregroundBlur"/>
</filter>
<filter id="filter17_f" x="57.8999" y="35.8999" width="3.2" height="3.2" filterUnits="userSpaceOnUse" color-interpolation-filters="sRGB">
<feFlood flood-opacity="0" result="BackgroundImageFix"/>
<feBlend mode="normal" in="SourceGraphic" in2="BackgroundImageFix" result="shape"/>
<feGaussianBlur stdDeviation="0.5" result="effect1_foregroundBlur"/>
</filter>
<filter id="filter18_f" x="106.9" y="0.899902" width="3.2" height="3.2" filterUnits="userSpaceOnUse" color-interpolation-filters="sRGB">
<feFlood flood-opacity="0" result="BackgroundImageFix"/>
<feBlend mode="normal" in="SourceGraphic" in2="BackgroundImageFix" result="shape"/>
<feGaussianBlur stdDeviation="0.5" result="effect1_foregroundBlur"/>
</filter>
<filter id="filter19_f" x="53.8999" y="-0.100098" width="4.2" height="4.2" filterUnits="userSpaceOnUse" color-interpolation-filters="sRGB">
<feFlood flood-opacity="0" result="BackgroundImageFix"/>
<feBlend mode="normal" in="SourceGraphic" in2="BackgroundImageFix" result="shape"/>
<feGaussianBlur stdDeviation="0.5" result="effect1_foregroundBlur"/>
</filter>
<filter id="filter20_d" x="166" y="-7" width="21.5" height="19" filterUnits="userSpaceOnUse" color-interpolation-filters="sRGB">
<feFlood flood-opacity="0" result="BackgroundImageFix"/>
<feColorMatrix in="SourceAlpha" type="matrix" values="0 0 0 0 0 0 0 0 0 0 0 0 0 0 0 0 0 0 127 0" result="hardAlpha"/>
<feOffset/>
<feGaussianBlur stdDeviation="3.5"/>
<feComposite in2="hardAlpha" operator="out"/>
<feColorMatrix type="matrix" values="0 0 0 0 0.849986 0 0 0 0 0.796249 0 0 0 0 0.312621 0 0 0 0.9 0"/>
<feBlend mode="normal" in2="BackgroundImageFix" result="effect1_dropShadow"/>
<feBlend mode="normal" in="SourceGraphic" in2="effect1_dropShadow" result="shape"/>
</filter>
<filter id="filter21_f" x="39.8999" y="29.8999" width="4.2" height="4.2" filterUnits="userSpaceOnUse" color-interpolation-filters="sRGB">
<feFlood flood-opacity="0" result="BackgroundImageFix"/>
<feBlend mode="normal" in="SourceGraphic" in2="BackgroundImageFix" result="shape"/>
<feGaussianBlur stdDeviation="0.5" result="effect1_foregroundBlur"/>
</filter>
<filter id="filter22_f" x="212.9" y="3.8999" width="4.2" height="4.2" filterUnits="userSpaceOnUse" color-interpolation-filters="sRGB">
<feFlood flood-opacity="0" result="BackgroundImageFix"/>
<feBlend mode="normal" in="SourceGraphic" in2="BackgroundImageFix" result="shape"/>
<feGaussianBlur stdDeviation="0.5" result="effect1_foregroundBlur"/>
</filter>
<filter id="filter23_d" x="140" y="29" width="30.5" height="21.0473" filterUnits="userSpaceOnUse" color-interpolation-filters="sRGB">
<feFlood flood-opacity="0" result="BackgroundImageFix"/>
<feColorMatrix in="SourceAlpha" type="matrix" values="0 0 0 0 0 0 0 0 0 0 0 0 0 0 0 0 0 0 127 0" result="hardAlpha"/>
<feOffset/>
<feGaussianBlur stdDeviation="3.5"/>
<feComposite in2="hardAlpha" operator="out"/>
<feColorMatrix type="matrix" values="0 0 0 0 0.849986 0 0 0 0 0.796249 0 0 0 0 0.312621 0 0 0 0.9 0"/>
<feBlend mode="normal" in2="BackgroundImageFix" result="effect1_dropShadow"/>
<feBlend mode="normal" in="SourceGraphic" in2="effect1_dropShadow" result="shape"/>
</filter>
<filter id="filter24_d" x="211" y="30" width="37" height="22" filterUnits="userSpaceOnUse" color-interpolation-filters="sRGB">
<feFlood flood-opacity="0" result="BackgroundImageFix"/>
<feColorMatrix in="SourceAlpha" type="matrix" values="0 0 0 0 0 0 0 0 0 0 0 0 0 0 0 0 0 0 127 0" result="hardAlpha"/>
<feOffset/>
<feGaussianBlur stdDeviation="3.5"/>
<feComposite in2="hardAlpha" operator="out"/>
<feColorMatrix type="matrix" values="0 0 0 0 0.849986 0 0 0 0 0.796249 0 0 0 0 0.312621 0 0 0 0.9 0"/>
<feBlend mode="normal" in2="BackgroundImageFix" result="effect1_dropShadow"/>
<feBlend mode="normal" in="SourceGraphic" in2="effect1_dropShadow" result="shape"/>
</filter>
<filter id="filter25_d" x="-0.5" y="12" width="43" height="27.5" filterUnits="userSpaceOnUse" color-interpolation-filters="sRGB">
<feFlood flood-opacity="0" result="BackgroundImageFix"/>
<feColorMatrix in="SourceAlpha" type="matrix" values="0 0 0 0 0 0 0 0 0 0 0 0 0 0 0 0 0 0 127 0" result="hardAlpha"/>
<feOffset/>
<feGaussianBlur stdDeviation="3.5"/>
<feComposite in2="hardAlpha" operator="out"/>
<feColorMatrix type="matrix" values="0 0 0 0 0.849986 0 0 0 0 0.796249 0 0 0 0 0.312621 0 0 0 0.9 0"/>
<feBlend mode="normal" in2="BackgroundImageFix" result="effect1_dropShadow"/>
<feBlend mode="normal" in="SourceGraphic" in2="effect1_dropShadow" result="shape"/>
</filter>
<filter id="filter26_d" x="248" y="12" width="43" height="27.5" filterUnits="userSpaceOnUse" color-interpolation-filters="sRGB">
<feFlood flood-opacity="0" result="BackgroundImageFix"/>
<feColorMatrix in="SourceAlpha" type="matrix" values="0 0 0 0 0 0 0 0 0 0 0 0 0 0 0 0 0 0 127 0" result="hardAlpha"/>
<feOffset/>
<feGaussianBlur stdDeviation="3.5"/>
<feComposite in2="hardAlpha" operator="out"/>
<feColorMatrix type="matrix" values="0 0 0 0 0.849986 0 0 0 0 0.796249 0 0 0 0 0.312621 0 0 0 0.9 0"/>
<feBlend mode="normal" in2="BackgroundImageFix" result="effect1_dropShadow"/>
<feBlend mode="normal" in="SourceGraphic" in2="effect1_dropShadow" result="shape"/>
</filter>
<linearGradient id="paint0_linear" x1="145" y1="0" x2="145" y2="72" gradientUnits="userSpaceOnUse">
<stop stop-color="#1AA7C5"/>
<stop offset="1" stop-color="#1AA7C5" stop-opacity="0"/>
</linearGradient>
<linearGradient id="paint1_linear" x1="234.847" y1="0.298881" x2="241.749" y2="12.4276" gradientUnits="userSpaceOnUse">
<stop stop-color="#FFFA88"/>
<stop offset="1" stop-color="#FFDA55"/>
</linearGradient>
<linearGradient id="paint2_linear" x1="53.1853" y1="28.487" x2="55.6875" y2="42.2615" gradientUnits="userSpaceOnUse">
<stop stop-color="#FFFA88"/>
<stop offset="1" stop-color="#FFDA55"/>
</linearGradient>
<linearGradient id="paint3_linear" x1="48" y1="2" x2="48" y2="11" gradientUnits="userSpaceOnUse">
<stop stop-color="#FFFA88"/>
<stop offset="1" stop-color="#FFDA55"/>
</linearGradient>
<linearGradient id="paint4_linear" x1="218" y1="41" x2="218" y2="43" gradientUnits="userSpaceOnUse">
<stop stop-color="#FFFA88"/>
<stop offset="1" stop-color="#FFDA55"/>
</linearGradient>
<linearGradient id="paint5_linear" x1="100" y1="2" x2="100" y2="4" gradientUnits="userSpaceOnUse">
<stop stop-color="#FFFA88"/>
<stop offset="1" stop-color="#FFDA55"/>
</linearGradient>
<linearGradient id="paint6_linear" x1="257" y1="16" x2="257" y2="18" gradientUnits="userSpaceOnUse">
<stop stop-color="#FFFA88"/>
<stop offset="1" stop-color="#FFDA55"/>
</linearGradient>
<linearGradient id="paint7_linear" x1="272" y1="36" x2="272" y2="38" gradientUnits="userSpaceOnUse">
<stop stop-color="#FFFA88"/>
<stop offset="1" stop-color="#FFDA55"/>
</linearGradient>
<linearGradient id="paint8_linear" x1="37" y1="16" x2="37" y2="18" gradientUnits="userSpaceOnUse">
<stop stop-color="#FFFA88"/>
<stop offset="1" stop-color="#FFDA55"/>
</linearGradient>
<linearGradient id="paint9_linear" x1="5" y1="33" x2="5" y2="35" gradientUnits="userSpaceOnUse">
<stop stop-color="#FFFA88"/>
<stop offset="1" stop-color="#FFDA55"/>
</linearGradient>
<linearGradient id="paint10_linear" x1="71" y1="42" x2="71" y2="44" gradientUnits="userSpaceOnUse">
<stop stop-color="#FFFA88"/>
<stop offset="1" stop-color="#FFDA55"/>
</linearGradient>
<linearGradient id="paint11_linear" x1="52" y1="11" x2="52" y2="13" gradientUnits="userSpaceOnUse">
<stop stop-color="#FFFA88"/>
<stop offset="1" stop-color="#FFDA55"/>
</linearGradient>
<linearGradient id="paint12_linear" x1="230" y1="4" x2="230" y2="6" gradientUnits="userSpaceOnUse">
<stop stop-color="#FFFA88"/>
<stop offset="1" stop-color="#FFDA55"/>
</linearGradient>
<linearGradient id="paint13_linear" x1="241" y1="39" x2="241" y2="41" gradientUnits="userSpaceOnUse">
<stop stop-color="#FFFA88"/>
<stop offset="1" stop-color="#FFDA55"/>
</linearGradient>
<linearGradient id="paint14_linear" x1="63" y1="36.0222" x2="63" y2="38.0222" gradientUnits="userSpaceOnUse">
<stop stop-color="#FFFA88"/>
<stop offset="1" stop-color="#FFDA55"/>
</linearGradient>
<linearGradient id="paint15_linear" x1="0.5" y1="0" x2="0.5" y2="1" gradientUnits="userSpaceOnUse">
<stop stop-color="#FFFA88"/>
<stop offset="1" stop-color="#FFDA55"/>
</linearGradient>
<linearGradient id="paint16_linear" x1="0.5" y1="0" x2="0.5" y2="1" gradientUnits="userSpaceOnUse">
<stop stop-color="#FFFA88"/>
<stop offset="1" stop-color="#FFDA55"/>
</linearGradient>
<linearGradient id="paint17_linear" x1="56" y1="1" x2="56" y2="3" gradientUnits="userSpaceOnUse">
<stop stop-color="#FFFA88"/>
<stop offset="1" stop-color="#FFDA55"/>
</linearGradient>
<linearGradient id="paint18_linear" x1="176.75" y1="0" x2="176.75" y2="5" gradientUnits="userSpaceOnUse">
<stop stop-color="#FFFA88"/>
<stop offset="1" stop-color="#FFDA55"/>
</linearGradient>
<linearGradient id="paint19_linear" x1="42" y1="31" x2="42" y2="33" gradientUnits="userSpaceOnUse">
<stop stop-color="#FFFA88"/>
<stop offset="1" stop-color="#FFDA55"/>
</linearGradient>
<linearGradient id="paint20_linear" x1="215" y1="5" x2="215" y2="7" gradientUnits="userSpaceOnUse">
<stop stop-color="#FFFA88"/>
<stop offset="1" stop-color="#FFDA55"/>
</linearGradient>
<linearGradient id="paint21_linear" x1="155.25" y1="36" x2="155.25" y2="43.0473" gradientUnits="userSpaceOnUse">
<stop stop-color="#FFFA88"/>
<stop offset="1" stop-color="#FFDA55"/>
</linearGradient>
<linearGradient id="paint22_linear" x1="229.5" y1="37" x2="229.5" y2="45" gradientUnits="userSpaceOnUse">
<stop stop-color="#FFFA88"/>
<stop offset="1" stop-color="#FFDA55"/>
</linearGradient>
<linearGradient id="paint23_linear" x1="21" y1="19" x2="21" y2="32.5" gradientUnits="userSpaceOnUse">
<stop stop-color="#FFFA88"/>
<stop offset="1" stop-color="#FFDA55"/>
</linearGradient>
<linearGradient id="paint24_linear" x1="269.5" y1="19" x2="269.5" y2="32.5" gradientUnits="userSpaceOnUse">
<stop stop-color="#FFFA88"/>
<stop offset="1" stop-color="#FFDA55"/>
</linearGradient>
<clipPath id="clip0">
<rect width="290" height="46" fill="white"/>
</clipPath>
</defs>
</svg>
